g Book
v -0.0799312815 0.244983137 0.176952153
v -0.0817165822 0.24404718 0.209668979
v -0.0293575637 -0.277258158 0.2000833
v -0.0275722854 -0.276322126 0.167366445
v -0.0594251677 0.255734295 -0.198835999
v -0.00706619769 -0.265571028 -0.208421722
v 0.00477350783 0.256544173 0.217239067
v 0.0272059888 0.259785473 0.219202533
v 0.0795650035 -0.261519879 0.20961684
v 0.0571325012 -0.26476112 0.207653373
v -0.0592840537 0.247288376 0.211632401
v -0.0069250958 -0.274016887 0.202046692
v -0.0817165822 0.24404718 0.209668979
v -0.0293575637 -0.277258158 0.2000833
v 0.0289912783 0.260721475 0.186485693
v 0.0494973697 0.271472603 -0.1893024
v 0.101856373 -0.24983266 -0.198888183
v 0.0813502818 -0.260583878 0.176899999
v 0.0272059888 0.259785473 0.219202533
v 0.0795650035 -0.261519879 0.20961684
v -0.036992684 0.258975536 -0.196872532
v -0.0594251677 0.255734295 -0.198835999
v -0.00706619769 -0.265571028 -0.208421722
v 0.0153662832 -0.262329727 -0.206458196
v 0.00655881083 0.257480174 0.184522256
v 0.027064912 0.268231302 -0.191265777
v 0.0494973697 0.271472603 -0.1893024
v 0.0289912783 0.260721475 0.186485693
v 0.00477350783 0.256544173 0.217239067
v 0.0272059888 0.259785473 0.219202533
v -0.0592840537 0.247288376 0.211632401
v -0.0574988052 0.248224378 0.17891556
v -0.0817165822 0.24404718 0.209668979
v -0.0799312815 0.244983137 0.176952153
v -0.036992684 0.258975536 -0.196872532
v -0.0594251677 0.255734295 -0.198835999
v -0.00513981842 -0.273080885 0.169329867
v 0.0153662832 -0.262329727 -0.206458196
v -0.00706619769 -0.265571028 -0.208421722
v -0.0275722854 -0.276322126 0.167366445
v -0.0069250958 -0.274016887 0.202046692
v -0.0293575637 -0.277258158 0.2000833
v 0.0571325012 -0.26476112 0.207653373
v 0.0589178018 -0.263825119 0.174936548
v 0.0795650035 -0.261519879 0.20961684
v 0.0813502818 -0.260583878 0.176899999
v 0.0794238821 -0.253073961 -0.200851485
v 0.101856373 -0.24983266 -0.198888183
v 0.0794238821 -0.253073961 -0.200851485
v 0.0561474003 -0.236483514 0.175917685
v 0.0589178018 -0.263825119 0.174936548
v 0.0759011731 -0.234731302 -0.17120561
v 0.027064912 0.268231302 -0.191265777
v 0.0273928232 0.248213679 -0.16236487
v 0.00655881083 0.257480174 0.184522256
v 0.00928010698 0.230112851 0.184440926
v -0.036992684 0.258975536 -0.196872532
v -0.0547774881 0.220857084 0.178834245
v -0.0574988052 0.248224378 0.17891556
v -0.0366647989 0.238957912 -0.167971566
v 0.0153662832 -0.262329727 -0.206458196
v 0.0118435798 -0.243987054 -0.176812336
v -0.00513981842 -0.273080885 0.169329867
v -0.00791019481 -0.245739266 0.170311004
v 0.0494973697 0.271472603 -0.1893024
v 0.027064912 0.268231302 -0.191265777
v 0.0794238821 -0.253073961 -0.200851485
v 0.101856373 -0.24983266 -0.198888183
v 0.0561474003 -0.236483514 0.175917685
v 0.0759011731 -0.234731302 -0.17120561
v 0.0118435798 -0.243987054 -0.176812336
v -0.00791019481 -0.245739266 0.170311004
v -0.0547774881 0.220857084 0.178834245
v -0.0366647989 0.238957912 -0.167971566
v 0.0273928232 0.248213679 -0.16236487
v 0.00928010698 0.230112851 0.184440926
v 0.0273928232 0.248213679 -0.16236487
v -0.0366647989 0.238957912 -0.167971566
v 0.0118435798 -0.243987054 -0.176812336
v 0.0759011731 -0.234731302 -0.17120561
v 0.0589178018 -0.263825119 0.174936548
v 0.0561474003 -0.236483514 0.175917685
v -0.00791019481 -0.245739266 0.170311004
v -0.00513981842 -0.273080885 0.169329867
v -0.0574988052 0.248224378 0.17891556
v -0.0547774881 0.220857084 0.178834245
v 0.00928010698 0.230112851 0.184440926
v 0.00655881083 0.257480174 0.184522256
vt 0.499527097 0.753038585
vt 0.505903602 0.753008544
vt 0.505903602 0.651070237
vt 0.499527097 0.651100278
vt 0.426286161 0.753383398
vt 0.426286131 0.651445091
vt 0.944662452 0.173773915
vt 0.949083686 0.17397213
vt 0.949083686 0.0720338523
vt 0.944662452 0.0718356371
vt 0.932037234 0.173207819
vt 0.932037234 0.0712695718
vt 0.927616 0.173009604
vt 0.927616 0.0710713267
vt 0.391125321 0.650322199
vt 0.317884386 0.649977446
vt 0.317884386 0.751915693
vt 0.391125321 0.752260506
vt 0.397501826 0.65035224
vt 0.397501826 0.752290487
vt 0.720514894 0.975787818
vt 0.724936128 0.975589633
vt 0.724936128 0.873651326
vt 0.720514894 0.873849571
vt 0.874231517 0.877427578
vt 0.874231517 0.950668752
vt 0.878655434 0.950543225
vt 0.878655434 0.877302051
vt 0.874231517 0.871051073
vt 0.878655434 0.870925546
vt 0.86159873 0.871409595
vt 0.86159873 0.8777861
vt 0.857174873 0.871535122
vt 0.857174873 0.877911627
vt 0.86159873 0.951027274
vt 0.857174873 0.951152802
vt 0.925699472 0.93023169
vt 0.925699472 0.856990516
vt 0.921275556 0.856864929
vt 0.921275616 0.930106163
vt 0.925699472 0.936608195
vt 0.921275616 0.936482668
vt 0.93833226 0.936966717
vt 0.93833226 0.930590153
vt 0.942756176 0.937092245
vt 0.942756176 0.93071574
vt 0.93833226 0.857349038
vt 0.942756176 0.857474566
vt 0.670735836 0.753008544
vt 0.597401738 0.748004675
vt 0.5974949 0.753353357
vt 0.665026605 0.749284744
vt 0.670735836 0.651070237
vt 0.665034294 0.654847741
vt 0.5974949 0.65141505
vt 0.597412705 0.656764507
vt 0.588319659 0.753353357
vt 0.514996529 0.747659087
vt 0.515078723 0.753008604
vt 0.582618117 0.749575913
vt 0.588319659 0.65141511
vt 0.582610488 0.65513885
vt 0.515078723 0.651070297
vt 0.514985561 0.656418979
vt 0.979006946 0.173207819
vt 0.98342818 0.173009574
vt 0.98342818 0.0710713267
vt 0.979006946 0.0712695718
vt 0.969401836 0.216154799
vt 0.969401836 0.283778697
vt 0.982034206 0.28415063
vt 0.982034206 0.216526732
vt 0.991281867 0.758888364
vt 0.991281807 0.691252649
vt 0.978648663 0.6915977
vt 0.978648663 0.759233356
vt 0.975849748 0.869772792
vt 0.96322453 0.870338798
vt 0.96322453 0.964775801
vt 0.975849688 0.964209855
vt 0.807475746 0.633058965
vt 0.802132547 0.632816136
vt 0.802132547 0.64545399
vt 0.807475746 0.645696878
vt 0.816557765 0.64545399
vt 0.821901917 0.645691872
vt 0.821901917 0.633054018
vt 0.816557765 0.632816136
vn -0.993477821 -0.0987344384 -0.0570367016
vn -0.993477821 -0.0987344384 -0.0570367016
vn -0.993477821 -0.0987344384 -0.0570367016
vn -0.993477821 -0.0987344384 -0.0570367016
vn -0.993477821 -0.0987343714 -0.0570370853
vn -0.993477821 -0.0987343714 -0.0570370853
vn -0.0833350345 -0.0266874582 0.996164203
vn -0.0833350345 -0.0266874582 0.996164203
vn -0.0833350345 -0.0266874582 0.996164203
vn -0.0833350345 -0.0266874582 0.996164203
vn -0.0833337903 -0.0266871992 0.996164322
vn -0.0833337903 -0.0266871992 0.996164322
vn -0.0833337903 -0.0266871992 0.996164322
vn -0.0833337903 -0.0266871992 0.996164322
vn 0.993477821 0.0987344012 0.0570370741
vn 0.993477821 0.0987344012 0.0570370741
vn 0.993477821 0.0987344012 0.0570370741
vn 0.993477821 0.0987344012 0.0570370741
vn 0.993477821 0.0987344235 0.0570365414
vn 0.993477821 0.0987344235 0.0570365414
vn 0.0833369344 0.026687583 -0.996163964
vn 0.0833369344 0.026687583 -0.996163964
vn 0.0833369344 0.026687583 -0.996163964
vn 0.0833369344 0.026687583 -0.996163964
vn -0.144725814 0.989261389 0.0204049312
vn -0.144725814 0.989261389 0.0204049312
vn -0.144725814 0.989261389 0.0204049312
vn -0.144725814 0.989261389 0.0204049312
vn -0.144726068 0.989261389 0.0204051659
vn -0.144725725 0.989261389 0.020404201
vn -0.144726068 0.989261389 0.0204051659
vn -0.144723207 0.989261746 0.0204050839
vn -0.144722015 0.989261985 0.0204048194
vn -0.144723207 0.989261746 0.0204050839
vn -0.144723207 0.989261746 0.0204050839
vn -0.144723207 0.989261746 0.0204050839
vn 0.144724548 -0.989261627 -0.020405082
vn 0.144724548 -0.989261627 -0.020405082
vn 0.144724548 -0.989261627 -0.020405082
vn 0.144724548 -0.989261627 -0.020405082
vn 0.144725576 -0.989261389 -0.0204051547
vn 0.144723877 -0.989261627 -0.0204054546
vn 0.144725576 -0.989261389 -0.0204051547
vn 0.144724384 -0.989261627 -0.0204050746
vn 0.144723073 -0.989261866 -0.0204048157
vn 0.144724384 -0.989261627 -0.0204050746
vn 0.144724384 -0.989261627 -0.0204050746
vn 0.144724384 -0.989261627 -0.0204050746
vn -0.993489504 -0.0986191705 -0.0570343956
vn -0.993489504 -0.0986191705 -0.0570343956
vn -0.993489504 -0.0986191705 -0.0570343956
vn -0.993489504 -0.0986191705 -0.0570343956
vn -0.993477464 -0.0987387598 -0.0570371933
vn -0.993477464 -0.0987387598 -0.0570371933
vn -0.993489504 -0.098619245 -0.0570344739
vn -0.993489504 -0.098619245 -0.0570344739
vn 0.993489504 0.0986191332 0.0570343919
vn 0.993489504 0.0986191332 0.0570343919
vn 0.993489504 0.0986191332 0.0570343919
vn 0.993489504 0.0986191332 0.0570343919
vn 0.993477345 0.0987387449 0.0570374429
vn 0.993477345 0.0987387449 0.0570374429
vn 0.993489504 0.0986184925 0.0570345223
vn 0.993489504 0.0986184925 0.0570345223
vn 0.083330743 0.0266870111 -0.99616456
vn 0.083330743 0.0266870111 -0.99616456
vn 0.083330743 0.0266870111 -0.99616456
vn 0.083330743 0.0266870111 -0.99616456
vn 0.142737225 -0.98975569 0.00312660984
vn 0.142737225 -0.98975569 0.00312660984
vn 0.142737225 -0.98975569 0.00312660984
vn 0.142737225 -0.98975569 0.00312660984
vn -0.146632642 0.988215566 0.0439196303
vn -0.146632642 0.988215566 0.0439196303
vn -0.146632642 0.988215566 0.0439196303
vn -0.146632642 0.988215566 0.0439196303
vn 0.0833459422 0.0266072322 -0.996165395
vn 0.0833459422 0.0266072322 -0.996165395
vn 0.0833459422 0.0266072322 -0.996165395
vn 0.0833459422 0.0266072322 -0.996165395
vn 0.0808083937 0.0439202562 -0.995761573
vn 0.0808083937 0.0439202562 -0.995761573
vn 0.0808083937 0.0439202562 -0.995761573
vn 0.0808083937 0.0439202562 -0.995761573
vn 0.0855422541 0.0114664854 -0.996268511
vn 0.0855422541 0.0114664854 -0.996268511
vn 0.0855422541 0.0114664854 -0.996268511
vn 0.0855422541 0.0114664854 -0.996268511
g Book_0
f 3/3/3 2/2/2 1/1/1
f 4/4/4 3/3/3 1/1/1
f 4/4/4 1/1/1 5/5/5
f 6/6/6 4/4/4 5/5/5
f 9/9/9 8/8/8 7/7/7
f 10/10/10 9/9/9 7/7/7
f 10/10/10 7/7/7 11/11/11
f 12/12/12 10/10/10 11/11/11
f 12/12/12 11/11/11 13/13/13
f 14/14/14 12/12/12 13/13/13
f 17/17/17 16/16/16 15/15/15
f 18/18/18 17/17/17 15/15/15
f 18/18/18 15/15/15 19/19/19
f 20/20/20 18/18/18 19/19/19
f 23/23/23 22/22/22 21/21/21
f 24/24/24 23/23/23 21/21/21
f 27/27/27 26/26/26 25/25/25
f 28/28/28 27/27/27 25/25/25
f 28/28/28 25/25/25 29/29/29
f 30/30/30 28/28/28 29/29/29
f 29/29/29 25/25/25 31/31/31
f 25/25/25 32/32/32 31/31/31
f 31/31/31 32/32/32 33/33/33
f 32/32/32 34/34/34 33/33/33
f 32/32/32 35/35/35 34/34/34
f 35/35/35 36/36/36 34/34/34
f 39/39/39 38/38/38 37/37/37
f 40/40/40 39/39/39 37/37/37
f 40/40/40 37/37/37 41/41/41
f 42/42/42 40/40/40 41/41/41
f 41/41/41 37/37/37 43/43/43
f 37/37/37 44/44/44 43/43/43
f 43/43/43 44/44/44 45/45/45
f 44/44/44 46/46/46 45/45/45
f 44/44/44 47/47/47 46/46/46
f 47/47/47 48/48/48 46/46/46
f 51/51/51 50/50/50 49/49/49
f 50/50/50 52/52/52 49/49/49
f 49/49/49 52/52/52 53/53/53
f 52/52/52 54/54/54 53/53/53
f 53/53/53 54/54/54 55/55/55
f 54/54/54 56/56/56 55/55/55
f 59/59/59 58/58/58 57/57/57
f 58/58/58 60/60/60 57/57/57
f 57/57/57 60/60/60 61/61/61
f 60/60/60 62/62/62 61/61/61
f 61/61/61 62/62/62 63/63/63
f 62/62/62 64/64/64 63/63/63
f 67/67/67 66/66/66 65/65/65
f 68/68/68 67/67/67 65/65/65
f 71/71/71 70/70/70 69/69/69
f 72/72/72 71/71/71 69/69/69
f 75/75/75 74/74/74 73/73/73
f 76/76/76 75/75/75 73/73/73
f 79/79/79 78/78/78 77/77/77
f 80/80/80 79/79/79 77/77/77
f 83/83/83 82/82/82 81/81/81
f 84/84/84 83/83/83 81/81/81
f 87/87/87 86/86/86 85/85/85
f 88/88/88 87/87/87 85/85/85
