g ShadyHat
v 0.279805541 0.0306290369 0.0234094001
v 0.174682021 0.0465276465 0.234076172
v 0.226916224 0.150655463 0.124439791
v -0 0.234690443 0.292415261
v -0 0.0449969172 0.293060064
v 0.1359341 0.370677382 0.122405455
v 0.1359341 0.370677382 0.122405455
v -0 0.234690443 0.292415261
v -0 0.267867774 0.182382166
v 0.0830059126 0.333004653 0.0568686724
v -0 0.333743155 0.0728366002
v 0.193275243 0.334928542 -0.138878196
v -0 0.309666902 -0.0508042946
v -0 0.289428353 -0.224448174
v 0.294841737 0.0278651062 0.265837938
v -0 0.0389246941 0.395643204
v -0 0.0449969172 0.293060064
v 0.174682021 0.0465276465 0.234076172
v 0.279805541 0.0306290369 0.0234094001
v 0.383352488 0.0170007609 0.0862191543
v 0.223177612 0.0149823083 -0.191305399
v 0.297738731 -0.00233884039 -0.261865616
v -0 -0.0147630731 -0.340345889
v -0 0.00498180883 -0.29483518
v 0.1359341 0.370677382 0.122405455
v 0.193275243 0.334928542 -0.138878196
v 0.226916224 0.150655463 0.124439791
v 0.279805541 0.0306290369 0.0234094001
v 0.223177612 0.0149823083 -0.191305399
v -0 0.00498180883 -0.29483518
v -0 0.289428353 -0.224448174
v 0.290227354 -0.0061576264 0.264436096
v -0 0.0201526806 0.269320905
v -0 0.00478193909 0.391764015
v 0.160696238 0.0187212601 0.219516411
v -0 0.0692405924 0.014168039
v 0.25837177 0.00377016678 0.0232990589
v 0.377884507 -0.0169133544 0.0870705023
v 0.0972963274 0.0692405924 0.017973816
v -0 -0.0139765712 -0.266398519
v 0.207820117 -0.0110122999 -0.174897775
v 0.294405907 -0.0359271094 -0.255422384
v -0 -0.0636426359 -0.347184807
v 0.297738731 -0.00233884039 -0.261865616
v 0.377884507 -0.0169133544 0.0870705023
v 0.383352488 0.0170007609 0.0862191543
v 0.294405907 -0.0359271094 -0.255422384
v -0 -0.0147630731 -0.340345889
v -0 -0.0636426359 -0.347184807
v 0.294841737 0.0278651062 0.265837938
v -0 0.00478193909 0.391764015
v -0 0.0389246941 0.395643204
v 0.290227354 -0.0061576264 0.264436096
v 0.383352488 0.0170007609 0.0862191543
v 0.377884507 -0.0169133544 0.0870705023
v -0.279805541 0.0306290369 0.0234094001
v -0.226916224 0.150655463 0.124439791
v -0.174682021 0.0465276465 0.234076172
v -0 0.234690443 0.292415261
v -0 0.0449969172 0.293060064
v -0.1359341 0.370677382 0.122405455
v -0.1359341 0.370677382 0.122405455
v -0 0.267867774 0.182382166
v -0 0.234690443 0.292415261
v -0.0830059126 0.333004653 0.0568686724
v -0 0.333743155 0.0728366002
v -0.193275243 0.334928542 -0.138878196
v -0 0.309666902 -0.0508042946
v -0 0.289428353 -0.224448174
v -0.294841737 0.0278651062 0.265837938
v -0 0.0449969172 0.293060064
v -0 0.0389246941 0.395643204
v -0.174682021 0.0465276465 0.234076172
v -0.279805541 0.0306290369 0.0234094001
v -0.383352488 0.0170007609 0.0862191543
v -0.223177612 0.0149823083 -0.191305399
v -0.297738731 -0.00233884039 -0.261865616
v -0 -0.0147630731 -0.340345889
v -0 0.00498180883 -0.29483518
v -0.1359341 0.370677382 0.122405455
v -0.226916224 0.150655463 0.124439791
v -0.193275243 0.334928542 -0.138878196
v -0.279805541 0.0306290369 0.0234094001
v -0.223177612 0.0149823083 -0.191305399
v -0 0.00498180883 -0.29483518
v -0 0.289428353 -0.224448174
v -0.290227354 -0.0061576264 0.264436096
v -0 0.00478193909 0.391764015
v -0 0.0201526806 0.269320905
v -0.160696238 0.0187212601 0.219516411
v -0 0.0692405924 0.014168039
v -0.25837177 0.00377016678 0.0232990589
v -0.377884507 -0.0169133544 0.0870705023
v -0.0972963274 0.0692405924 0.017973816
v -0 -0.0139765712 -0.266398519
v -0.207820117 -0.0110122999 -0.174897775
v -0.294405907 -0.0359271094 -0.255422384
v -0 -0.0636426359 -0.347184807
v -0.297738731 -0.00233884039 -0.261865616
v -0.383352488 0.0170007609 0.0862191543
v -0.377884507 -0.0169133544 0.0870705023
v -0.294405907 -0.0359271094 -0.255422384
v -0 -0.0147630731 -0.340345889
v -0 -0.0636426359 -0.347184807
v -0.294841737 0.0278651062 0.265837938
v -0 0.0389246941 0.395643204
v -0 0.00478193909 0.391764015
v -0.290227354 -0.0061576264 0.264436096
v -0.383352488 0.0170007609 0.0862191543
v -0.377884507 -0.0169133544 0.0870705023
vt 0.605794907 0.629710555
vt 0.478842676 0.706970572
vt 0.578692555 0.730729997
vt 0.418740183 0.88953805
vt 0.355213463 0.77630043
vt 0.605794907 0.90638113
vt 0.7343297 0.699016392
vt 0.841892123 0.820092022
vt 0.841565847 0.737614453
vt 0.776190817 0.645452619
vt 0.840743303 0.65814054
vt 0.6906721 0.493777633
vt 0.841306686 0.560534537
vt 0.841892123 0.424544871
vt 0.424121439 0.491037011
vt 0.653523684 0.592562258
vt 0.653314114 0.513691664
vt 0.517297626 0.468084276
vt 0.435505509 0.303687036
vt 0.355213434 0.351094097
vt 0.479569465 0.136265665
vt 0.421739042 0.0801792443
vt 0.653523743 0.0185741782
vt 0.653269827 0.0554398596
vt 0.926335454 0.387396514
vt 0.921431184 0.199597225
vt 0.760721445 0.387396514
vt 0.6906721 0.312841296
vt 0.698455989 0.139768183
vt 0.704205871 0.0185741782
vt 0.898911417 0.094559744
vt 0.0915137231 0.108364344
vt 0.317263842 0.113030076
vt 0.318065077 0.0185741782
vt 0.193006247 0.146486938
vt 0.318065107 0.309168041
vt 0.111335874 0.296257257
vt 0.0185741782 0.243653938
vt 0.243796498 0.303018183
vt 0.299072623 0.530421913
vt 0.142929643 0.452424645
vt 0.0711526275 0.513125122
vt 0.289880455 0.595175266
vt 0.879499674 0.703719854
vt 0.91644299 0.427383721
vt 0.890184939 0.424544871
vt 0.905929446 0.701926827
vt 0.87904048 0.82069397
vt 0.91644305 0.829328775
vt 0.979923725 0.550413847
vt 0.955136001 0.798495412
vt 0.981425822 0.800753474
vt 0.953591406 0.552232504
vt 0.981425822 0.424544901
vt 0.955053091 0.427764714
vt 0.605794907 0.629710555
vt 0.578692555 0.730729997
vt 0.478842676 0.706970572
vt 0.418740183 0.88953805
vt 0.355213463 0.77630043
vt 0.605794907 0.90638113
vt 0.7343297 0.699016392
vt 0.841565847 0.737614453
vt 0.841892123 0.820092022
vt 0.776190817 0.645452619
vt 0.840743303 0.65814054
vt 0.6906721 0.493777633
vt 0.841306686 0.560534537
vt 0.841892123 0.424544871
vt 0.424121439 0.491037011
vt 0.653314114 0.513691664
vt 0.653523684 0.592562258
vt 0.517297626 0.468084276
vt 0.435505509 0.303687036
vt 0.355213434 0.351094097
vt 0.479569465 0.136265665
vt 0.421739042 0.0801792443
vt 0.653523743 0.0185741782
vt 0.653269827 0.0554398596
vt 0.926335454 0.387396514
vt 0.760721445 0.387396514
vt 0.921431184 0.199597225
vt 0.6906721 0.312841296
vt 0.698455989 0.139768183
vt 0.704205871 0.0185741782
vt 0.898911417 0.094559744
vt 0.0915137231 0.108364344
vt 0.318065077 0.0185741782
vt 0.317263842 0.113030076
vt 0.193006247 0.146486938
vt 0.318065107 0.309168041
vt 0.111335874 0.296257257
vt 0.0185741782 0.243653938
vt 0.243796498 0.303018183
vt 0.299072623 0.530421913
vt 0.142929643 0.452424645
vt 0.0711526275 0.513125122
vt 0.289880455 0.595175266
vt 0.879499674 0.703719854
vt 0.890184939 0.424544871
vt 0.91644299 0.427383721
vt 0.905929446 0.701926827
vt 0.87904048 0.82069397
vt 0.91644305 0.829328775
vt 0.979923725 0.550413847
vt 0.981425822 0.800753474
vt 0.955136001 0.798495412
vt 0.953591406 0.552232504
vt 0.981425822 0.424544901
vt 0.955053091 0.427764714
vn 0.61857152 0.785603166 -0.0140308691
vn 0.408138663 0.802998006 0.434300452
vn 0.866182804 0.268531173 0.421447873
vn -0 0.464113951 0.885775447
vn -0 0.740567148 0.671982229
vn 0.260875136 0.906895638 0.330884188
vn 0.260875136 0.906895638 0.330884188
vn -0 0.464113951 0.885775447
vn -0 0.955484033 0.295042723
vn -0.285527676 0.957542121 -0.0398365334
vn -0 0.976702332 0.214598775
vn 0.551853597 0.724885345 -0.412309229
vn -0 0.992692292 -0.12067312
vn -0 0.645747304 -0.763551116
vn 0.603603899 0.555386961 0.57202071
vn -0 0.555476487 0.83153224
vn -0 0.740567148 0.671982229
vn 0.408138663 0.802998006 0.434300452
vn 0.61857152 0.785603166 -0.0140308691
vn 0.845179975 0.529906869 0.0697831511
vn 0.430160552 0.781608641 -0.451718599
vn 0.590770125 0.517116606 -0.619339228
vn -0 0.543274403 -0.839555204
vn -0 0.767922163 -0.640543222
vn 0.260875136 0.906895638 0.330884188
vn 0.551853597 0.724885345 -0.412309229
vn 0.866182804 0.268531173 0.421447873
vn 0.61857152 0.785603166 -0.0140308691
vn 0.430160552 0.781608641 -0.451718599
vn -0 0.767922163 -0.640543222
vn -0 0.645747304 -0.763551116
vn 0.441364586 -0.722861707 0.531665504
vn -0 -0.983149052 -0.182806
vn -0 -0.705015898 0.709191501
vn -0.135161906 -0.981365681 -0.136574507
vn -0 -0.998306274 0.0581768006
vn -0.266230911 -0.962589443 0.0504236221
vn 0.659892499 -0.743725777 0.10683541
vn -0.181880116 -0.982354939 0.0435696542
vn -0 -0.934971452 0.354723066
vn -0.16321741 -0.95415771 0.250884861
vn 0.545111716 -0.704907 -0.45382759
vn -0 -0.793608367 -0.608428895
vn 0.590770125 0.517116606 -0.619339228
vn 0.659892499 -0.743725777 0.10683541
vn 0.845179975 0.529906869 0.0697831511
vn 0.545111716 -0.704907 -0.45382759
vn -0 0.543274403 -0.839555204
vn -0 -0.793608367 -0.608428895
vn 0.603603899 0.555386961 0.57202071
vn -0 -0.705015898 0.709191501
vn -0 0.555476487 0.83153224
vn 0.441364586 -0.722861707 0.531665504
vn 0.845179975 0.529906869 0.0697831511
vn 0.659892499 -0.743725777 0.10683541
vn -0.61857146 0.785603166 -0.0140308496
vn -0.866182804 0.268531173 0.421447873
vn -0.408138663 0.802998006 0.434300512
vn -0 0.464113951 0.885775447
vn -0 0.740567148 0.671982229
vn -0.260875195 0.906895638 0.330884218
vn -0.260875195 0.906895638 0.330884218
vn -0 0.955484033 0.295042723
vn -0 0.464113951 0.885775447
vn 0.285527706 0.957542121 -0.0398365185
vn -0 0.976702332 0.214598775
vn -0.551853597 0.724885345 -0.4123092
vn -0 0.992692292 -0.12067312
vn -0 0.645747304 -0.763551116
vn -0.60360384 0.555386901 0.57202071
vn -0 0.740567148 0.671982229
vn -0 0.555476487 0.83153224
vn -0.408138663 0.802998006 0.434300512
vn -0.61857146 0.785603166 -0.0140308496
vn -0.845179975 0.529906869 0.0697831511
vn -0.430160552 0.781608641 -0.451718688
vn -0.590770125 0.517116606 -0.619339228
vn -0 0.543274403 -0.839555204
vn -0 0.767922163 -0.640543222
vn -0.260875195 0.906895638 0.330884218
vn -0.866182804 0.268531173 0.421447873
vn -0.551853597 0.724885345 -0.4123092
vn -0.61857146 0.785603166 -0.0140308496
vn -0.430160552 0.781608641 -0.451718688
vn -0 0.767922163 -0.640543222
vn -0 0.645747304 -0.763551116
vn -0.441364527 -0.722861648 0.531665564
vn -0 -0.705015898 0.709191501
vn -0 -0.983149052 -0.182806
vn 0.135161892 -0.981365681 -0.136574492
vn -0 -0.998306274 0.0581768006
vn 0.266230911 -0.962589443 0.0504236147
vn -0.659892619 -0.743725777 0.10683541
vn 0.181880116 -0.982354939 0.0435696691
vn -0 -0.934971452 0.354723066
vn 0.16321741 -0.95415771 0.250884861
vn -0.545111775 -0.70490694 -0.45382759
vn -0 -0.793608367 -0.608428895
vn -0.590770125 0.517116606 -0.619339228
vn -0.845179975 0.529906869 0.0697831511
vn -0.659892619 -0.743725777 0.10683541
vn -0.545111775 -0.70490694 -0.45382759
vn -0 0.543274403 -0.839555204
vn -0 -0.793608367 -0.608428895
vn -0.60360384 0.555386901 0.57202071
vn -0 0.555476487 0.83153224
vn -0 -0.705015898 0.709191501
vn -0.441364527 -0.722861648 0.531665564
vn -0.845179975 0.529906869 0.0697831511
vn -0.659892619 -0.743725777 0.10683541
g ShadyHat_0
f 3/3/3 2/2/2 1/1/1
f 3/3/3 4/4/4 2/2/2
f 2/2/2 4/4/4 5/5/5
f 3/3/3 6/6/6 4/4/4
f 9/9/9 8/8/8 7/7/7
f 10/10/10 9/9/9 7/7/7
f 10/10/10 11/11/11 9/9/9
f 12/12/12 10/10/10 7/7/7
f 10/10/10 13/13/13 11/11/11
f 10/10/10 12/12/12 13/13/13
f 12/12/12 14/14/14 13/13/13
f 17/17/17 16/16/16 15/15/15
f 18/18/18 17/17/17 15/15/15
f 19/19/19 18/18/18 15/15/15
f 20/20/20 19/19/19 15/15/15
f 21/21/21 19/19/19 20/20/20
f 22/22/22 21/21/21 20/20/20
f 21/21/21 22/22/22 23/23/23
f 24/24/24 21/21/21 23/23/23
f 27/27/27 26/26/26 25/25/25
f 26/26/26 27/27/27 28/28/28
f 29/29/29 26/26/26 28/28/28
f 26/26/26 29/29/29 30/30/30
f 30/30/30 31/31/31 26/26/26
f 34/34/34 33/33/33 32/32/32
f 33/33/33 35/35/35 32/32/32
f 33/33/33 36/36/36 35/35/35
f 35/35/35 37/37/37 32/32/32
f 37/37/37 38/38/38 32/32/32
f 36/36/36 39/39/39 35/35/35
f 35/35/35 39/39/39 37/37/37
f 39/39/39 36/36/36 40/40/40
f 37/37/37 41/41/41 38/38/38
f 37/37/37 39/39/39 41/41/41
f 41/41/41 39/39/39 40/40/40
f 41/41/41 42/42/42 38/38/38
f 41/41/41 40/40/40 43/43/43
f 42/42/42 41/41/41 43/43/43
f 46/46/46 45/45/45 44/44/44
f 45/45/45 47/47/47 44/44/44
f 44/44/44 47/47/47 48/48/48
f 47/47/47 49/49/49 48/48/48
f 52/52/52 51/51/51 50/50/50
f 51/51/51 53/53/53 50/50/50
f 50/50/50 53/53/53 54/54/54
f 53/53/53 55/55/55 54/54/54
f 58/58/58 57/57/57 56/56/56
f 59/59/59 57/57/57 58/58/58
f 59/59/59 58/58/58 60/60/60
f 61/61/61 57/57/57 59/59/59
f 64/64/64 63/63/63 62/62/62
f 63/63/63 65/65/65 62/62/62
f 66/66/66 65/65/65 63/63/63
f 65/65/65 67/67/67 62/62/62
f 68/68/68 65/65/65 66/66/66
f 67/67/67 65/65/65 68/68/68
f 69/69/69 67/67/67 68/68/68
f 72/72/72 71/71/71 70/70/70
f 71/71/71 73/73/73 70/70/70
f 73/73/73 74/74/74 70/70/70
f 74/74/74 75/75/75 70/70/70
f 74/74/74 76/76/76 75/75/75
f 76/76/76 77/77/77 75/75/75
f 77/77/77 76/76/76 78/78/78
f 76/76/76 79/79/79 78/78/78
f 82/82/82 81/81/81 80/80/80
f 81/81/81 82/82/82 83/83/83
f 82/82/82 84/84/84 83/83/83
f 84/84/84 82/82/82 85/85/85
f 86/86/86 85/85/85 82/82/82
f 89/89/89 88/88/88 87/87/87
f 90/90/90 89/89/89 87/87/87
f 91/91/91 89/89/89 90/90/90
f 92/92/92 90/90/90 87/87/87
f 93/93/93 92/92/92 87/87/87
f 94/94/94 91/91/91 90/90/90
f 94/94/94 90/90/90 92/92/92
f 91/91/91 94/94/94 95/95/95
f 96/96/96 92/92/92 93/93/93
f 94/94/94 92/92/92 96/96/96
f 94/94/94 96/96/96 95/95/95
f 97/97/97 96/96/96 93/93/93
f 95/95/95 96/96/96 98/98/98
f 96/96/96 97/97/97 98/98/98
f 101/101/101 100/100/100 99/99/99
f 102/102/102 101/101/101 99/99/99
f 102/102/102 99/99/99 103/103/103
f 104/104/104 102/102/102 103/103/103
f 107/107/107 106/106/106 105/105/105
f 108/108/108 107/107/107 105/105/105
f 108/108/108 105/105/105 109/109/109
f 110/110/110 108/108/108 109/109/109
